<?xml version="1.0" encoding="UTF-8"?>
<svg xmlns="http://www.w3.org/2000/svg" viewBox="0 0 800 600">
  <path
    id="new-south-wales"
    d="M600,350 Q620,330 650,320 Q680,310 690,300 Q700,290 710,260 Q720,230 720,200 Q720,170 710,150 Q700,130 680,120 Q660,110 640,115 Q620,120 600,130 Q580,140 560,160 Q540,180 530,200 Q520,220 520,245 Q520,270 530,290 Q540,310 560,330 Q580,350 600,350 Z"
    fill="#e5e5e5" stroke="#fff" stroke-width="1"
  />
  <path
    id="victoria"
    d="M530,390 Q550,370 575,360 Q600,350 560,330 Q520,310 510,330 Q500,350 510,370 Q520,390 530,390 Z"
    fill="#e5e5e5" stroke="#fff" stroke-width="1"
  />
  <path
    id="queensland"
    d="M580,140 Q600,120 620,110 Q640,100 660,80 Q680,60 685,50 Q690,40 690,30 Q690,20 680,15 Q670,10 650,15 Q630,20 610,30 Q590,40 570,60 Q550,80 540,100 Q530,120 535,130 Q540,140 550,145 Q560,150 580,140 Z"
    fill="#e5e5e5" stroke="#fff" stroke-width="1"
  />
  <path
    id="western-australia"
    d="M200,300 Q220,280 230,250 Q240,220 245,200 Q250,180 250,160 Q250,140 245,120 Q240,100 230,85 Q220,70 200,60 Q180,50 160,55 Q140,60 130,75 Q120,90 115,110 Q110,130 110,150 Q110,170 115,190 Q120,210 130,230 Q140,250 155,270 Q170,290 185,305 Q200,320 200,300 Z"
    fill="#e5e5e5" stroke="#fff" stroke-width="1"
  />
  <path
    id="south-australia"
    d="M350,350 Q370,330 380,300 Q390,270 390,240 Q390,210 380,180 Q370,150 350,130 Q330,110 300,105 Q270,100 250,110 Q230,120 220,140 Q210,160 210,180 Q210,200 220,220 Q230,240 250,260 Q270,280 300,300 Q330,320 350,350 Z"
    fill="#e5e5e5" stroke="#fff" stroke-width="1"
  />
  <path
    id="australian-capital-territory"
    d="M595,345 Q600,340 605,335 Q610,330 610,325 Q610,320 605,315 Q600,310 595,315 Q590,320 590,325 Q590,330 590,335 Q590,340 595,345 Z"
    fill="#e5e5e5" stroke="#fff" stroke-width="1"
  />
  <path
    id="tasmania"
    d="M500,550 Q510,530 525,520 Q540,510 550,515 Q560,520 565,535 Q570,550 565,565 Q560,580 550,585 Q540,590 525,585 Q510,580 505,565 Q500,550 500,550 Z"
    fill="#e5e5e5" stroke="#fff" stroke-width="1"
  />
  <path
    id="northern-territory"
    d="M400,200 Q420,180 435,155 Q450,130 450,100 Q450,70 435,50 Q420,30 400,25 Q380,20 360,30 Q340,40 330,60 Q320,80 320,105 Q320,130 330,155 Q340,180 360,195 Q380,210 400,200 Z"
    fill="#e5e5e5" stroke="#fff" stroke-width="1"
  />
</svg>
